<svg width="0" height="0" class="hidden">
  <symbol xmlns="http://www.w3.org/2000/svg" viewBox="0 0 512 512" id="logo">
    <title></title>
    <g id="Layer_15">
      <path d="M256,31.43994C118.14941,31.43994,6,120.895,6,230.8501c0,29.83691,8.583,59.80518,24.82031,86.665C46.35254,343.20947,69.042,366.30127,96.5957,384.49658l-27.293,74.66895a15.86491,15.86491,0,0,0,24.98438,17.74365l72.876-59.65234c7.00293,2.11816,14.10059,3.9834,21.1377,5.55322a4.99989,4.99989,0,1,0,2.17773-9.75977c-7.63379-1.70312-15.34473-3.7666-22.917-6.13281a4.998,4.998,0,0,0-4.6582.90332L87.95215,469.17188a5.88479,5.88479,0,0,1-9.25586-6.57568l28.66016-78.40967a5.00009,5.00009,0,0,0-2.01074-5.93408C48.56543,342.09717,16,288.37109,16,230.8501,16,126.40918,123.66309,41.43994,256,41.43994S496,126.40918,496,230.8501,388.33691,420.25977,256,420.25977a305.25447,305.25447,0,0,1-36.3623-2.18359,4.99972,4.99972,0,1,0-1.19531,9.92773A315.13139,315.13139,0,0,0,256,430.25977c137.85059,0,250-89.45508,250-199.40967C506,120.895,393.85059,31.43994,256,31.43994Z"></path>
      <path d="M130.18359,133.46826c16.13477-13.04687,40.51855-18.70605,63.63672-14.7749,24.10645,4.10107,44.67871,18.15967,57.92676,39.58594a4.9999,4.9999,0,0,0,8.50488.001c14.43359-23.333,37.085-37.67236,63.78223-40.37549a5.00007,5.00007,0,0,0-1.00781-9.94922,92.95756,92.95756,0,0,0-67.0293,38.71875,93.4643,93.4643,0,0,0-60.5-37.83936c-25.86133-4.39795-53.30078,2.06006-71.60059,16.85693-34.17676,27.63574-34.6377,82.604-1.14844,136.80371C149.71191,309.125,223.251,352.23584,253.627,368.61133a5.00283,5.00283,0,0,0,4.74609,0c30.376-16.37549,103.915-59.48633,130.87891-106.11572,33.48926-54.19971,33.02832-109.168-1.14648-136.80273a82.81629,82.81629,0,0,0-33.4541-15.77539,4.99987,4.99987,0,1,0-2.24219,9.74512,72.77917,72.77917,0,0,1,29.40723,13.80566c30.09082,24.33154,29.64453,74.0957-1.10937,123.83252-.02637.04248-.05176.08594-.07715.12988C355.63867,300.72412,286.93164,341.667,256,358.52295c-30.93164-16.856-99.63867-57.79883-124.62988-101.09229-.02539-.04395-.05078-.0874-.07715-.12988C100.53906,207.564,100.09277,157.7998,130.18359,133.46826Z"></path>
    </g>
    </symbol>
    <symbol version="1.0" xmlns="http://www.w3.org/2000/svg" preserveAspectRatio="xMidYMid meet" viewBox="0 0 600.000000 216.000000" id="logo-rsschool">
      <g transform="translate(0.000000,216.000000) scale(0.100000,-0.100000)" fill="#1a1a1aac" stroke="none">
        <path d="M3325 2150 c-130 -20 -210 -64 -260 -144 -24 -40 -30 -62 -33 -120
-3 -63 0 -77 25 -126 50 -96 106 -125 400 -209 118 -35 155 -101 91 -165 -81
-81 -228 -40 -262 72 l-13 47 -69 -3 c-38 -1 -102 -5 -142 -8 l-73 -6 7 -36
c8 -49 46 -133 80 -177 60 -79 170 -115 354 -115 221 0 344 59 407 196 52 115
37 229 -43 314 -57 61 -129 93 -303 136 -181 45 -219 75 -171 137 55 69 205
33 228 -56 9 -36 -1 -35 203 -21 l86 6 -9 40 c-13 61 -32 101 -66 140 -73 83
-260 125 -437 98z"></path>
        <path d="M70 1655 l0 -485 150 0 150 0 0 201 0 202 37 -6 c21 -4 49 -15 63
-25 14 -11 68 -98 120 -195 l95 -176 168 -1 c93 0 167 3 165 8 -1 4 -34 68
-72 142 -84 166 -131 231 -187 258 l-42 21 29 11 c73 27 87 36 129 82 51 57
65 97 65 189 0 132 -79 225 -213 248 -37 6 -188 11 -360 11 l-297 0 0 -485z
m537 269 c38 -28 47 -70 25 -114 -22 -45 -61 -59 -174 -59 l-88 -1 0 101 0
101 105 -4 c85 -3 109 -7 132 -24z"></path>
        <path d="M275 986 c-68 -17 -124 -48 -161 -88 -54 -56 -69 -95 -69 -178 0 -64
4 -82 27 -121 50 -84 133 -131 321 -179 133 -33 147 -40 176 -76 55 -69 -8
-154 -114 -154 -76 0 -137 46 -160 121 -7 26 -18 43 -26 42 -8 -1 -72 -5 -142
-8 -112 -6 -127 -9 -123 -24 2 -9 8 -32 11 -51 11 -54 52 -127 94 -169 101
-101 379 -130 567 -60 126 47 211 177 201 309 -5 81 -32 135 -93 188 -55 49
-114 73 -294 118 -107 27 -140 40 -158 60 -36 41 -15 87 48 104 78 21 158 -17
180 -86 l11 -33 97 5 c53 3 116 7 139 10 41 5 42 6 36 37 -10 57 -53 136 -91
167 -69 56 -131 73 -287 76 -92 2 -157 -1 -190 -10z"></path>
        <path d="M1411 984 c-203 -54 -321 -229 -321 -474 0 -163 47 -288 144 -386 72
-72 131 -98 267 -116 231 -30 407 47 488 215 56 116 61 108 -82 150 -69 20
-127 37 -130 37 -3 0 -11 -17 -17 -37 -32 -100 -88 -143 -185 -143 -138 0
-192 89 -183 304 5 117 25 167 84 212 75 57 211 37 252 -37 37 -66 26 -64 163
-34 68 15 126 29 128 31 2 2 -10 32 -27 68 -52 111 -147 189 -264 216 -64 14
-254 11 -317 -6z"></path>
        <path d="M3713 985 c-171 -46 -293 -184 -324 -368 -24 -148 6 -322 76 -424 73
-108 173 -163 336 -185 100 -13 224 -1 302 29 70 27 144 82 183 134 l36 49 39
-50 c76 -97 164 -141 318 -161 118 -16 239 0 333 43 78 35 167 121 198 190
l20 43 0 -132 0 -133 385 0 385 0 0 120 0 120 -235 0 -235 0 0 365 0 365 -150
0 -150 0 0 -132 -1 -133 -31 58 c-79 146 -223 217 -438 217 -194 0 -322 -56
-419 -185 -17 -23 -24 -27 -28 -15 -4 8 -28 38 -54 66 -54 57 -125 96 -214
119 -75 19 -261 19 -332 0z m252 -224 c86 -39 119 -109 118 -256 0 -194 -61
-277 -203 -277 -84 0 -134 32 -176 112 -23 44 -31 209 -15 278 34 133 157 198
276 143z m881 0 c82 -37 117 -114 116 -256 -1 -147 -30 -219 -105 -258 -43
-22 -141 -26 -178 -7 -48 25 -90 74 -104 124 -17 57 -20 213 -5 267 34 122
161 182 276 130z"></path>
        <path d="M2270 505 l0 -485 145 0 145 0 0 195 0 195 165 0 165 0 0 -195 0
-195 150 0 150 0 0 485 0 485 -150 0 -150 0 0 -170 0 -170 -165 0 -165 0 0
170 0 170 -145 0 -145 0 0 -485z"></path>
      </g>
    </symbol>
    <symbol fill="none" xmlns="http://www.w3.org/2000/svg" viewBox="0 0 24 24" id="logout">
      <path d="M16.4052 7.54086L21.1463 12.282L16.4052 17.0231" stroke-linecap="round"></path>
      <path d="M20.5142 12.2821H6.60687" stroke-linecap="round"></path>
      <path d="M15.3522 4H5.92359C4.81902 4 3.92358 4.89543 3.92358 6V18C3.92358 19.1046 4.81901 20 5.92358 20H15.3522" stroke-linecap="round"></path>
    </symbol>
</svg>